<svg fill="none" height="100%" width="100%" viewBox="0 0 800 600" xmlns:xlink="http://www.w3.org/1999/xlink" xmlns="http://www.w3.org/2000/svg"><defs><clipPath id="i0"><rect height="600" width="800" y="0" x="0" /></clipPath><g id="i1"><g opacity="0" id="i2"><animate repeatCount="indefinite" attributeName="opacity" dur="2.94s" begin="0s" fill="freeze" values="0; 1; 1; 0" keyTimes="0; 0.306122; 0.693878; 1" keySplines="0.333 0 0.667 1; 0.333 0 0.667 1; 0.333 0 0.667 1" calcMode="spline" /><g transform="translate(327.38,267.583)"><animateTransform repeatCount="indefinite" type="translate" attributeName="transform" dur="2.94s" begin="0s" calcMode="spline" values="327.38 267.583; 482.38 267.583" keyTimes="0; 1" keySplines="0 0 1 1" fill="freeze" /><g transform="scale(0.5,0.5) translate(-171.76,-193.166)"><g id="i3" transform="matrix(1,0,0,1,171.76,193.166)"><path fill="#d0d2d3" d="M59.669,-8.242C53.143,-8.242,47.22,-5.677,42.84,-1.506C42.047,-23.225,24.2,-40.592,2.287,-40.592C-17.519,-40.592,-34.001,-26.403,-37.576,-7.638C-39.31,-8.029,-41.111,-8.242,-42.962,-8.242C-56.447,-8.242,-67.378,2.69,-67.378,16.174C-67.378,16.467,-67.367,16.758,-67.356,17.049C-68.756,16.49,-70.279,16.174,-71.878,16.174C-78.62,16.174,-84.086,21.64,-84.086,28.383C-84.086,35.125,-78.62,40.591,-71.878,40.591C-71.878,40.591,59.669,40.591,59.669,40.591C73.154,40.591,84.086,29.659,84.086,16.174C84.086,2.69,73.154,-8.242,59.669,-8.242Z" /></g></g></g></g><g id="i4"><g transform="translate(390.319,298.2)"><animateTransform repeatCount="indefinite" type="translate" attributeName="transform" dur="2.94s" begin="0s" calcMode="spline" values="390.319 298.2; 390.319 282.7; 390.319 319.25; 390.319 298.2" keyTimes="0; 0.299319; 0.748299; 1" keySplines="0.333 0 0.667 1; 0.333 0 0.667 1; 0.333 0 0.667 1" fill="freeze" /><g transform="rotate(0)"><animateTransform repeatCount="indefinite" type="rotate" attributeName="transform" dur="2.94s" begin="0s" calcMode="spline" values="0; 35; 0" keyTimes="0; 0.523809; 1" keySplines="0.547 0 0.667 1; 0.333 0 0.845 1" fill="freeze" /><g transform="scale(1,1) translate(-664.319,-256.2)"><g id="i5" transform="matrix(0.5,0,0,0.5,515.5,129)"><g id="i6" transform="matrix(1,0,0,1,297.638,254.4)"><path fill="#5d68f9" d="M-133.812,-42.171C-133.812,-42.171,133.812,-75.141,133.812,-75.141C133.812,-75.141,5.765,75.141,5.765,75.141C5.765,75.141,-61.708,18.402,-61.708,18.402C-61.708,18.402,124.227,-71.307,124.227,-71.307C124.227,-71.307,-87.011,-1.534,-87.011,-1.534C-87.011,-1.534,-133.812,-42.171,-133.812,-42.171Z" /></g></g><g id="i7" transform="matrix(0.5,0,0,0.5,515.5,129)"><g id="i8" transform="matrix(1,0,0,1,316.247,247.882)"><path fill="#474bd8" d="M-98.335,64.79C-98.335,64.79,-105.619,4.984,-105.619,4.984C-105.619,4.984,105.619,-64.79,105.619,-64.79C105.619,-64.79,-80.316,24.919,-80.316,24.919C-80.316,24.919,-98.335,64.79,-98.335,64.79Z" /></g></g><g id="i9" transform="matrix(0.5,0,0,0.5,515.5,129.001)"><g id="i10" transform="matrix(1,0,0,1,236.879,292.737)"><path fill="#3931ac" d="M18.967,-3.189C18.967,-3.189,-18.967,19.935,-18.967,19.935C-18.967,19.935,-0.949,-19.935,-0.949,-19.935C-0.949,-19.935,18.967,-3.189,18.967,-3.189Z" /></g></g></g></g></g></g><g opacity="0" id="i11"><animate repeatCount="indefinite" attributeName="opacity" dur="2.94s" begin="0s" fill="freeze" values="0; 0.5; 0.5; 0; 0" keyTimes="0; 0.258504; 0.598639; 0.816327; 1" keySplines="0 0 1 1; 0 0 1 1; 0 0 1 1; 0 0 1 1" calcMode="spline" /><g transform="translate(468.336,323.378)"><animateTransform repeatCount="indefinite" type="translate" attributeName="transform" dur="2.94s" begin="0s" calcMode="spline" values="468.336 323.378; 294.336 323.378; 294.336 323.378" keyTimes="0; 0.693878; 1" keySplines="0 0 1 1; 0 0 1 1" fill="freeze" /><g transform="scale(0.5,0.5) translate(-453.672,-304.756)"><g id="i12" transform="matrix(1,0,0,1,453.672,304.756)"><path fill="#d0d2d3" d="M75.134,16.175C74.353,16.175,73.591,16.256,72.85,16.396C72.851,16.322,72.856,16.249,72.856,16.175C72.856,2.691,61.924,-8.241,48.44,-8.241C46.662,-8.241,44.931,-8.046,43.262,-7.685C39.668,-26.427,23.196,-40.591,3.406,-40.591C-16.624,-40.591,-33.254,-26.077,-36.571,-6.995C-38.992,-7.799,-41.578,-8.241,-44.269,-8.241C-57.754,-8.241,-68.685,2.691,-68.685,16.175C-68.685,16.817,-68.652,17.45,-68.604,18.079C-70.494,16.88,-72.728,16.175,-75.133,16.175C-81.875,16.175,-87.341,21.641,-87.341,28.383C-87.341,35.126,-81.875,40.592,-75.133,40.592C-75.133,40.592,75.134,40.592,75.134,40.592C81.876,40.592,87.342,35.126,87.342,28.383C87.342,21.641,81.876,16.175,75.134,16.175Z" /></g></g></g></g></g></defs><g transform="matrix(1.79,0,0,1.79,-310,-231)" id="i13"><g clip-path="url(#i0)"><g opacity="0"><animate repeatCount="indefinite" attributeName="opacity" dur="2.94s" begin="0s" fill="freeze" values="0; 1; 1; 0" keyTimes="0; 0.306122; 0.693878; 1" keySplines="0.333 0 0.667 1; 0.333 0 0.667 1; 0.333 0 0.667 1" calcMode="spline" /><g transform="translate(327.38,267.583)"><animateTransform repeatCount="indefinite" type="translate" attributeName="transform" dur="2.94s" begin="0s" calcMode="spline" values="327.38 267.583; 482.38 267.583" keyTimes="0; 1" keySplines="0 0 1 1" fill="freeze" /><g transform="scale(0.5,0.5) translate(-171.76,-193.166)"><g transform="matrix(1,0,0,1,171.76,193.166)"><path fill="#d0d2d3" d="M59.669,-8.242C53.143,-8.242,47.22,-5.677,42.84,-1.506C42.047,-23.225,24.2,-40.592,2.287,-40.592C-17.519,-40.592,-34.001,-26.403,-37.576,-7.638C-39.31,-8.029,-41.111,-8.242,-42.962,-8.242C-56.447,-8.242,-67.378,2.69,-67.378,16.174C-67.378,16.467,-67.367,16.758,-67.356,17.049C-68.756,16.49,-70.279,16.174,-71.878,16.174C-78.62,16.174,-84.086,21.64,-84.086,28.383C-84.086,35.125,-78.62,40.591,-71.878,40.591C-71.878,40.591,59.669,40.591,59.669,40.591C73.154,40.591,84.086,29.659,84.086,16.174C84.086,2.69,73.154,-8.242,59.669,-8.242Z" /></g></g></g></g><g><g transform="translate(390.319,298.2)"><animateTransform repeatCount="indefinite" type="translate" attributeName="transform" dur="2.94s" begin="0s" calcMode="spline" values="390.319 298.2; 390.319 282.7; 390.319 319.25; 390.319 298.2" keyTimes="0; 0.299319; 0.748299; 1" keySplines="0.333 0 0.667 1; 0.333 0 0.667 1; 0.333 0 0.667 1" fill="freeze" /><g transform="rotate(0)"><animateTransform repeatCount="indefinite" type="rotate" attributeName="transform" dur="2.94s" begin="0s" calcMode="spline" values="0; 35; 0" keyTimes="0; 0.523809; 1" keySplines="0.547 0 0.667 1; 0.333 0 0.845 1" fill="freeze" /><g transform="scale(1,1) translate(-664.319,-256.2)"><g transform="matrix(0.5,0,0,0.5,515.5,129)"><g transform="matrix(1,0,0,1,297.638,254.4)"><path fill="#5d68f9" d="M-133.812,-42.171C-133.812,-42.171,133.812,-75.141,133.812,-75.141C133.812,-75.141,5.765,75.141,5.765,75.141C5.765,75.141,-61.708,18.402,-61.708,18.402C-61.708,18.402,124.227,-71.307,124.227,-71.307C124.227,-71.307,-87.011,-1.534,-87.011,-1.534C-87.011,-1.534,-133.812,-42.171,-133.812,-42.171Z" /></g></g><g transform="matrix(0.5,0,0,0.5,515.5,129)"><g transform="matrix(1,0,0,1,316.247,247.882)"><path fill="#474bd8" d="M-98.335,64.79C-98.335,64.79,-105.619,4.984,-105.619,4.984C-105.619,4.984,105.619,-64.79,105.619,-64.79C105.619,-64.79,-80.316,24.919,-80.316,24.919C-80.316,24.919,-98.335,64.79,-98.335,64.79Z" /></g></g><g transform="matrix(0.5,0,0,0.5,515.5,129.001)"><g transform="matrix(1,0,0,1,236.879,292.737)"><path fill="#3931ac" d="M18.967,-3.189C18.967,-3.189,-18.967,19.935,-18.967,19.935C-18.967,19.935,-0.949,-19.935,-0.949,-19.935C-0.949,-19.935,18.967,-3.189,18.967,-3.189Z" /></g></g></g></g></g></g><g opacity="0"><animate repeatCount="indefinite" attributeName="opacity" dur="2.94s" begin="0s" fill="freeze" values="0; 0.5; 0.5; 0; 0" keyTimes="0; 0.258504; 0.598639; 0.816327; 1" keySplines="0 0 1 1; 0 0 1 1; 0 0 1 1; 0 0 1 1" calcMode="spline" /><g transform="translate(468.336,323.378)"><animateTransform repeatCount="indefinite" type="translate" attributeName="transform" dur="2.94s" begin="0s" calcMode="spline" values="468.336 323.378; 294.336 323.378; 294.336 323.378" keyTimes="0; 0.693878; 1" keySplines="0 0 1 1; 0 0 1 1" fill="freeze" /><g transform="scale(0.5,0.5) translate(-453.672,-304.756)"><g transform="matrix(1,0,0,1,453.672,304.756)"><path fill="#d0d2d3" d="M75.134,16.175C74.353,16.175,73.591,16.256,72.85,16.396C72.851,16.322,72.856,16.249,72.856,16.175C72.856,2.691,61.924,-8.241,48.44,-8.241C46.662,-8.241,44.931,-8.046,43.262,-7.685C39.668,-26.427,23.196,-40.591,3.406,-40.591C-16.624,-40.591,-33.254,-26.077,-36.571,-6.995C-38.992,-7.799,-41.578,-8.241,-44.269,-8.241C-57.754,-8.241,-68.685,2.691,-68.685,16.175C-68.685,16.817,-68.652,17.45,-68.604,18.079C-70.494,16.88,-72.728,16.175,-75.133,16.175C-81.875,16.175,-87.341,21.641,-87.341,28.383C-87.341,35.126,-81.875,40.592,-75.133,40.592C-75.133,40.592,75.134,40.592,75.134,40.592C81.876,40.592,87.342,35.126,87.342,28.383C87.342,21.641,81.876,16.175,75.134,16.175Z" /></g></g></g></g></g></g></svg>